<svg width="258" height="56" viewBox="0 0 258 56" fill="none" xmlns="http://www.w3.org/2000/svg">
<path d="M22 37L16.8033 31.8033M16.8033 31.8033C18.1605 30.4461 19 28.5711 19 26.5C19 22.3579 15.6421 19 11.5 19C7.35786 19 4 22.3579 4 26.5C4 30.6421 7.35786 34 11.5 34C13.5711 34 15.4461 33.1605 16.8033 31.8033Z" stroke="white" stroke-width="1.5" stroke-linecap="round" stroke-linejoin="round"/>
<path d="M61.5933 19.3224C62.6939 19.4501 63.5 20.399 63.5 21.507V37L56 33.25L48.5 37V21.507C48.5 20.399 49.3061 19.4501 50.4067 19.3224C52.2416 19.1095 54.108 19 56 19C57.892 19 59.7584 19.1095 61.5933 19.3224Z" stroke="white" stroke-width="1.5" stroke-linecap="round" stroke-linejoin="round"/>
<path d="M103.625 26.5V22C103.625 19.9289 101.947 18.25 99.8755 18.25C97.8044 18.25 96.1255 19.9289 96.1255 22V26.5M107.482 24.5072L108.745 36.5072C108.815 37.1715 108.294 37.75 107.626 37.75H92.1251C91.4572 37.75 90.9364 37.1715 91.0063 36.5072L92.2695 24.5072C92.3297 23.9347 92.8126 23.5 93.3883 23.5H106.363C106.938 23.5 107.421 23.9347 107.482 24.5072ZM96.5005 26.5C96.5005 26.7071 96.3326 26.875 96.1255 26.875C95.9184 26.875 95.7505 26.7071 95.7505 26.5C95.7505 26.2929 95.9184 26.125 96.1255 26.125C96.3326 26.125 96.5005 26.2929 96.5005 26.5ZM104 26.5C104 26.7071 103.833 26.875 103.625 26.875C103.418 26.875 103.25 26.7071 103.25 26.5C103.25 26.2929 103.418 26.125 103.625 26.125C103.833 26.125 104 26.2929 104 26.5Z" stroke="white" stroke-width="1.5" stroke-linecap="round" stroke-linejoin="round"/>
<rect x="152" width="106" height="56" rx="16" fill="#F4CE47"/>
<path d="M181.278 34V22.3636H183.034V32.4886H188.307V34H181.278ZM199.988 28.1818C199.988 29.4242 199.761 30.4924 199.307 31.3864C198.852 32.2765 198.229 32.9621 197.437 33.4432C196.649 33.9205 195.754 34.1591 194.75 34.1591C193.742 34.1591 192.843 33.9205 192.051 33.4432C191.263 32.9621 190.642 32.2746 190.187 31.3807C189.733 30.4867 189.506 29.4205 189.506 28.1818C189.506 26.9394 189.733 25.8731 190.187 24.983C190.642 24.089 191.263 23.4034 192.051 22.9261C192.843 22.4451 193.742 22.2045 194.75 22.2045C195.754 22.2045 196.649 22.4451 197.437 22.9261C198.229 23.4034 198.852 24.089 199.307 24.983C199.761 25.8731 199.988 26.9394 199.988 28.1818ZM198.25 28.1818C198.25 27.2348 198.096 26.4375 197.79 25.7898C197.487 25.1383 197.07 24.6458 196.54 24.3125C196.013 23.9754 195.417 23.8068 194.75 23.8068C194.079 23.8068 193.481 23.9754 192.954 24.3125C192.428 24.6458 192.011 25.1383 191.704 25.7898C191.401 26.4375 191.25 27.2348 191.25 28.1818C191.25 29.1288 191.401 29.928 191.704 30.5795C192.011 31.2273 192.428 31.7197 192.954 32.0568C193.481 32.3902 194.079 32.5568 194.75 32.5568C195.417 32.5568 196.013 32.3902 196.54 32.0568C197.07 31.7197 197.487 31.2273 197.79 30.5795C198.096 29.928 198.25 29.1288 198.25 28.1818ZM210.076 26.0398C209.967 25.6951 209.819 25.3864 209.633 25.1136C209.451 24.8371 209.234 24.6023 208.98 24.4091C208.726 24.2121 208.436 24.0625 208.111 23.9602C207.789 23.858 207.434 23.8068 207.048 23.8068C206.393 23.8068 205.802 23.9754 205.275 24.3125C204.749 24.6496 204.332 25.1439 204.025 25.7955C203.722 26.4432 203.571 27.2367 203.571 28.1761C203.571 29.1193 203.724 29.9167 204.031 30.5682C204.338 31.2197 204.758 31.714 205.292 32.0511C205.826 32.3883 206.434 32.5568 207.116 32.5568C207.749 32.5568 208.3 32.428 208.77 32.1705C209.243 31.9129 209.609 31.5492 209.866 31.0795C210.128 30.6061 210.258 30.0492 210.258 29.4091L210.713 29.4943H207.383V28.0455H211.957V29.3693C211.957 30.3466 211.749 31.1951 211.332 31.9148C210.919 32.6307 210.347 33.1837 209.616 33.5739C208.889 33.964 208.056 34.1591 207.116 34.1591C206.063 34.1591 205.139 33.9167 204.343 33.4318C203.552 32.947 202.934 32.2595 202.491 31.3693C202.048 30.4754 201.826 29.4148 201.826 28.1875C201.826 27.2595 201.955 26.4261 202.213 25.6875C202.47 24.9489 202.832 24.322 203.298 23.8068C203.768 23.2879 204.319 22.892 204.951 22.6193C205.588 22.3428 206.283 22.2045 207.037 22.2045C207.665 22.2045 208.251 22.2973 208.792 22.483C209.338 22.6686 209.823 22.9318 210.247 23.2727C210.675 23.6136 211.029 24.0189 211.309 24.4886C211.59 24.9545 211.779 25.4716 211.878 26.0398H210.076ZM215.965 22.3636V34H214.21V22.3636H215.965ZM227.938 22.3636V34H226.325L220.41 25.4659H220.302V34H218.546V22.3636H220.171L226.092 30.9091H226.2V22.3636H227.938Z" fill="black" fill-opacity="0.87"/>
</svg>
